<mxfile host="Electron" modified="2023-08-08T14:03:28.417Z" agent="Mozilla/5.0 (Windows NT 10.0; Win64; x64) AppleWebKit/537.36 (KHTML, like Gecko) draw.io/21.6.5 Chrome/114.0.5735.243 Electron/25.3.1 Safari/537.36" etag="lmwGhxeqAeVqheOsrJ1i" version="21.6.5" type="device">
  <diagram name="Seite-1" id="eKOM-C6yKiMZEDMhfb7Z">
    <mxGraphModel dx="988" dy="574" grid="1" gridSize="10" guides="1" tooltips="1" connect="1" arrows="1" fold="1" page="1" pageScale="1" pageWidth="827" pageHeight="1169" math="0" shadow="0">
      <root>
        <mxCell id="0" />
        <mxCell id="1" parent="0" />
        <mxCell id="tSuMTDHnEL6JDL1X04Us-17" style="edgeStyle=orthogonalEdgeStyle;rounded=0;orthogonalLoop=1;jettySize=auto;html=1;entryX=0.5;entryY=0;entryDx=0;entryDy=0;endArrow=none;endFill=0;" edge="1" parent="1" source="tSuMTDHnEL6JDL1X04Us-1" target="tSuMTDHnEL6JDL1X04Us-14">
          <mxGeometry relative="1" as="geometry" />
        </mxCell>
        <mxCell id="tSuMTDHnEL6JDL1X04Us-1" value="Buch_Autor" style="rounded=0;whiteSpace=wrap;html=1;" vertex="1" parent="1">
          <mxGeometry x="490" y="120" width="120" height="60" as="geometry" />
        </mxCell>
        <mxCell id="tSuMTDHnEL6JDL1X04Us-2" value="Preis" style="ellipse;whiteSpace=wrap;html=1;" vertex="1" parent="1">
          <mxGeometry x="240" y="240" width="120" height="50" as="geometry" />
        </mxCell>
        <mxCell id="tSuMTDHnEL6JDL1X04Us-16" style="edgeStyle=orthogonalEdgeStyle;rounded=0;orthogonalLoop=1;jettySize=auto;html=1;entryX=0;entryY=0.5;entryDx=0;entryDy=0;endArrow=none;endFill=0;" edge="1" parent="1" source="tSuMTDHnEL6JDL1X04Us-3" target="tSuMTDHnEL6JDL1X04Us-1">
          <mxGeometry relative="1" as="geometry" />
        </mxCell>
        <mxCell id="tSuMTDHnEL6JDL1X04Us-3" value="geschrieben &lt;br&gt;von" style="rhombus;whiteSpace=wrap;html=1;" vertex="1" parent="1">
          <mxGeometry x="330" y="122.5" width="106" height="55" as="geometry" />
        </mxCell>
        <mxCell id="tSuMTDHnEL6JDL1X04Us-4" value="Autor" style="rounded=0;whiteSpace=wrap;html=1;" vertex="1" parent="1">
          <mxGeometry x="490" y="390" width="120" height="60" as="geometry" />
        </mxCell>
        <mxCell id="tSuMTDHnEL6JDL1X04Us-15" style="edgeStyle=orthogonalEdgeStyle;rounded=0;orthogonalLoop=1;jettySize=auto;html=1;entryX=0;entryY=0.5;entryDx=0;entryDy=0;endArrow=none;endFill=0;" edge="1" parent="1" source="tSuMTDHnEL6JDL1X04Us-5" target="tSuMTDHnEL6JDL1X04Us-3">
          <mxGeometry relative="1" as="geometry" />
        </mxCell>
        <mxCell id="tSuMTDHnEL6JDL1X04Us-19" style="rounded=0;orthogonalLoop=1;jettySize=auto;html=1;entryX=0.5;entryY=1;entryDx=0;entryDy=0;endArrow=none;endFill=0;" edge="1" parent="1" source="tSuMTDHnEL6JDL1X04Us-5" target="tSuMTDHnEL6JDL1X04Us-9">
          <mxGeometry relative="1" as="geometry" />
        </mxCell>
        <mxCell id="tSuMTDHnEL6JDL1X04Us-20" style="rounded=0;orthogonalLoop=1;jettySize=auto;html=1;endArrow=none;endFill=0;" edge="1" parent="1" source="tSuMTDHnEL6JDL1X04Us-5" target="tSuMTDHnEL6JDL1X04Us-8">
          <mxGeometry relative="1" as="geometry" />
        </mxCell>
        <mxCell id="tSuMTDHnEL6JDL1X04Us-21" style="rounded=0;orthogonalLoop=1;jettySize=auto;html=1;endArrow=none;endFill=0;" edge="1" parent="1" source="tSuMTDHnEL6JDL1X04Us-5" target="tSuMTDHnEL6JDL1X04Us-7">
          <mxGeometry relative="1" as="geometry" />
        </mxCell>
        <mxCell id="tSuMTDHnEL6JDL1X04Us-22" style="rounded=0;orthogonalLoop=1;jettySize=auto;html=1;endArrow=none;endFill=0;" edge="1" parent="1" source="tSuMTDHnEL6JDL1X04Us-5" target="tSuMTDHnEL6JDL1X04Us-6">
          <mxGeometry relative="1" as="geometry" />
        </mxCell>
        <mxCell id="tSuMTDHnEL6JDL1X04Us-23" style="rounded=0;orthogonalLoop=1;jettySize=auto;html=1;endArrow=none;endFill=0;" edge="1" parent="1" source="tSuMTDHnEL6JDL1X04Us-5" target="tSuMTDHnEL6JDL1X04Us-2">
          <mxGeometry relative="1" as="geometry" />
        </mxCell>
        <mxCell id="tSuMTDHnEL6JDL1X04Us-5" value="Buch" style="rounded=0;whiteSpace=wrap;html=1;" vertex="1" parent="1">
          <mxGeometry x="160" y="120" width="120" height="60" as="geometry" />
        </mxCell>
        <mxCell id="tSuMTDHnEL6JDL1X04Us-6" value="VerÃ¶ffentlichung" style="ellipse;whiteSpace=wrap;html=1;" vertex="1" parent="1">
          <mxGeometry x="100" y="240" width="120" height="50" as="geometry" />
        </mxCell>
        <mxCell id="tSuMTDHnEL6JDL1X04Us-7" value="Genre" style="ellipse;whiteSpace=wrap;html=1;" vertex="1" parent="1">
          <mxGeometry y="160" width="120" height="50" as="geometry" />
        </mxCell>
        <mxCell id="tSuMTDHnEL6JDL1X04Us-8" value="Titel" style="ellipse;whiteSpace=wrap;html=1;" vertex="1" parent="1">
          <mxGeometry x="20" y="60" width="120" height="50" as="geometry" />
        </mxCell>
        <mxCell id="tSuMTDHnEL6JDL1X04Us-9" value="ISBN" style="ellipse;whiteSpace=wrap;html=1;" vertex="1" parent="1">
          <mxGeometry x="170" y="30" width="120" height="50" as="geometry" />
        </mxCell>
        <mxCell id="tSuMTDHnEL6JDL1X04Us-26" style="rounded=0;orthogonalLoop=1;jettySize=auto;html=1;entryX=0.5;entryY=1;entryDx=0;entryDy=0;endArrow=none;endFill=0;" edge="1" parent="1" source="tSuMTDHnEL6JDL1X04Us-11" target="tSuMTDHnEL6JDL1X04Us-4">
          <mxGeometry relative="1" as="geometry" />
        </mxCell>
        <mxCell id="tSuMTDHnEL6JDL1X04Us-11" value="Email" style="ellipse;whiteSpace=wrap;html=1;" vertex="1" parent="1">
          <mxGeometry x="490" y="491" width="120" height="50" as="geometry" />
        </mxCell>
        <mxCell id="tSuMTDHnEL6JDL1X04Us-27" style="rounded=0;orthogonalLoop=1;jettySize=auto;html=1;endArrow=none;endFill=0;" edge="1" parent="1" source="tSuMTDHnEL6JDL1X04Us-12" target="tSuMTDHnEL6JDL1X04Us-4">
          <mxGeometry relative="1" as="geometry" />
        </mxCell>
        <mxCell id="tSuMTDHnEL6JDL1X04Us-12" value="Land" style="ellipse;whiteSpace=wrap;html=1;" vertex="1" parent="1">
          <mxGeometry x="660" y="395" width="120" height="50" as="geometry" />
        </mxCell>
        <mxCell id="tSuMTDHnEL6JDL1X04Us-24" style="rounded=0;orthogonalLoop=1;jettySize=auto;html=1;entryX=0;entryY=0.5;entryDx=0;entryDy=0;endArrow=none;endFill=0;" edge="1" parent="1" source="tSuMTDHnEL6JDL1X04Us-13" target="tSuMTDHnEL6JDL1X04Us-4">
          <mxGeometry relative="1" as="geometry" />
        </mxCell>
        <mxCell id="tSuMTDHnEL6JDL1X04Us-13" value="Name" style="ellipse;whiteSpace=wrap;html=1;" vertex="1" parent="1">
          <mxGeometry x="310" y="395" width="120" height="50" as="geometry" />
        </mxCell>
        <mxCell id="tSuMTDHnEL6JDL1X04Us-18" style="edgeStyle=orthogonalEdgeStyle;rounded=0;orthogonalLoop=1;jettySize=auto;html=1;entryX=0.5;entryY=0;entryDx=0;entryDy=0;endArrow=none;endFill=0;" edge="1" parent="1" source="tSuMTDHnEL6JDL1X04Us-14" target="tSuMTDHnEL6JDL1X04Us-4">
          <mxGeometry relative="1" as="geometry" />
        </mxCell>
        <mxCell id="tSuMTDHnEL6JDL1X04Us-14" value="verfasst" style="rhombus;whiteSpace=wrap;html=1;" vertex="1" parent="1">
          <mxGeometry x="497" y="260" width="106" height="55" as="geometry" />
        </mxCell>
        <mxCell id="tSuMTDHnEL6JDL1X04Us-28" value="m" style="text;html=1;strokeColor=none;fillColor=none;align=center;verticalAlign=middle;whiteSpace=wrap;rounded=0;" vertex="1" parent="1">
          <mxGeometry x="450" y="122.5" width="60" height="30" as="geometry" />
        </mxCell>
        <mxCell id="tSuMTDHnEL6JDL1X04Us-29" value="1" style="text;html=1;strokeColor=none;fillColor=none;align=center;verticalAlign=middle;whiteSpace=wrap;rounded=0;" vertex="1" parent="1">
          <mxGeometry x="260" y="122.5" width="60" height="30" as="geometry" />
        </mxCell>
        <mxCell id="tSuMTDHnEL6JDL1X04Us-30" value="m" style="text;html=1;strokeColor=none;fillColor=none;align=center;verticalAlign=middle;whiteSpace=wrap;rounded=0;" vertex="1" parent="1">
          <mxGeometry x="510" y="177.5" width="60" height="30" as="geometry" />
        </mxCell>
        <mxCell id="tSuMTDHnEL6JDL1X04Us-31" value="1" style="text;html=1;strokeColor=none;fillColor=none;align=center;verticalAlign=middle;whiteSpace=wrap;rounded=0;" vertex="1" parent="1">
          <mxGeometry x="510" y="365" width="60" height="30" as="geometry" />
        </mxCell>
      </root>
    </mxGraphModel>
  </diagram>
</mxfile>
